<?xml version="1.0" encoding="UTF-8" standalone="no"?><!DOCTYPE svg PUBLIC "-//W3C//DTD SVG 1.1//EN" "http://www.w3.org/Graphics/SVG/1.1/DTD/svg11.dtd"><svg width="100%" height="100%" viewBox="0 0 64 64" version="1.1" xmlns="http://www.w3.org/2000/svg" xmlns:xlink="http://www.w3.org/1999/xlink" xml:space="preserve" xmlns:serif="http://www.serif.com/" style="fill-rule:evenodd;clip-rule:evenodd;stroke-linecap:round;stroke-linejoin:round;stroke-miterlimit:1.5;"><path d="M24.581,49.222c-8.613,-3.807 -17.108,-13.679 -17.108,-23.695c0,-13.537 10.99,-24.527 24.527,-24.527c13.537,0 24.527,10.99 24.527,24.527c0,10.016 -8.495,19.888 -17.108,23.695c0,0 -5.524,13.778 -7.419,13.778c-2.297,0 -7.419,-13.778 -7.419,-13.778Z" style="fill:#f4b12c;stroke:#fff;stroke-width:2px;"/><g><path d="M22.605,28c0,0 2.214,5.285 9.395,5.285c7.181,0 9.395,-5.285 9.395,-5.285" style="fill:none;stroke:#ebebeb;stroke-width:3px;"/><g><circle cx="20.742" cy="18.64" r="2.64" style="fill:#ebebeb;"/><circle cx="43.258" cy="18.64" r="2.64" style="fill:#ebebeb;"/></g></g></svg>